<svg width="22" height="22" viewBox="0 0 22 22" fill="none" xmlns="http://www.w3.org/2000/svg">
<path fill-rule="evenodd" clip-rule="evenodd" d="M8.49707 2.64928C9.9879 1.56092 12.0121 1.56092 13.5029 2.64928L18.5996 6.41686C19.5772 7.12755 20.1591 8.26097 20.167 9.46959V16.2889C20.1137 18.4143 18.4024 20.1098 16.3008 20.1669H5.69922C3.59756 20.1098 1.88631 18.4143 1.83301 16.2889V9.47838C1.83864 8.26444 2.42518 7.12646 3.41016 6.41686L8.49707 2.64928ZM12.6865 3.75866C11.6818 3.02496 10.3182 3.02496 9.31348 3.75866L4.22559 7.51647C3.59144 7.96928 3.21294 8.69919 3.20801 9.47838V16.2889C3.26761 17.7212 4.47055 18.8384 5.90332 18.7919H16.0967C17.5313 18.8434 18.7373 17.7235 18.792 16.2889V9.46959C18.7873 8.69545 18.4079 7.97122 17.7744 7.52624L12.6865 3.75866ZM15.125 14.4374C15.5046 14.4374 15.8123 14.7453 15.8125 15.1249C15.8125 15.5046 15.5047 15.8124 15.125 15.8124H6.875C6.4953 15.8124 6.1875 15.5046 6.1875 15.1249C6.18767 14.7453 6.49541 14.4374 6.875 14.4374H15.125Z" fill="white"/>
</svg>
