<svg width="22" height="22" viewBox="0 0 22 22" fill="none" xmlns="http://www.w3.org/2000/svg">
<path d="M18.8742 5.74756H3.12583C2.15887 5.74756 1.375 6.53143 1.375 7.49839V17.9942C1.375 18.9612 2.15887 19.7451 3.12583 19.7451H18.8742C19.8411 19.7451 20.625 18.9612 20.625 17.9942V7.49839C20.625 6.53143 19.8411 5.74756 18.8742 5.74756Z" stroke="white" stroke-width="1.2" stroke-miterlimit="10" stroke-linecap="square"/>
<path d="M3.12603 5.74756H18.8744C19.3387 5.74756 19.784 5.93202 20.1124 6.26037C20.4407 6.58871 20.6252 7.03404 20.6252 7.49839V8.41506C20.6252 9.34376 20.2563 10.2344 19.5996 10.8911C18.9429 11.5478 18.0522 11.9167 17.1235 11.9167H4.87686C4.41391 11.9168 3.95555 11.825 3.52831 11.6467C3.10106 11.4685 2.7134 11.2072 2.38775 10.8782C2.06211 10.5491 1.80495 10.1588 1.63114 9.72969C1.45734 9.3006 1.37034 8.84131 1.37519 8.37839V7.46173C1.38478 7.00376 1.57347 6.56779 1.90078 6.24734C2.2281 5.92688 2.66796 5.74746 3.12603 5.74756Z" stroke="white" stroke-width="1.2" stroke-miterlimit="10" stroke-linecap="square"/>
<path d="M6.62793 11.8706V13.6214" stroke="white" stroke-width="1.2" stroke-miterlimit="10" stroke-linecap="square"/>
<path d="M15.3726 11.8706V13.6214" stroke="white" stroke-width="1.2" stroke-miterlimit="10" stroke-linecap="square"/>
<path d="M14.5019 5.74738H7.49854L8.37854 2.25488H13.6219L14.5019 5.74738Z" stroke="white" stroke-width="1.2" stroke-miterlimit="10" stroke-linecap="square"/>
</svg>
