<svg width="22" height="22" viewBox="0 0 22 22" fill="none" xmlns="http://www.w3.org/2000/svg">
<path fill-rule="evenodd" clip-rule="evenodd" d="M3.54736 11.4585H6.7557C7.30271 11.4585 7.82731 11.6758 8.2141 12.0626C8.6009 12.4494 8.8182 12.974 8.8182 13.521V16.7293C8.8182 17.2763 8.6009 17.8009 8.2141 18.1877C7.82731 18.5745 7.30271 18.7918 6.7557 18.7918H3.54736C2.40828 18.7918 1.48486 17.8684 1.48486 16.7293V13.521C1.48486 12.3819 2.40828 11.4585 3.54736 11.4585ZM6.7557 17.4168C7.13539 17.4168 7.4432 17.109 7.4432 16.7293V13.521C7.4432 13.1413 7.13539 12.8335 6.7557 12.8335H3.54736C3.16973 12.8384 2.8648 13.1434 2.85986 13.521V16.7293C2.8648 17.107 3.16973 17.4119 3.54736 17.4168H6.7557Z" fill="white"/>
<path d="M12.4849 12.6043C12.1052 12.6043 11.7974 12.9121 11.7974 13.2918C11.7974 13.6715 12.1052 13.9793 12.4849 13.9793H17.0682C17.4479 13.9793 17.7557 13.6715 17.7557 13.2918C17.7557 12.9121 17.4479 12.6043 17.0682 12.6043H12.4849Z" fill="white"/>
<path d="M19.8182 16.271H12.4849C12.1052 16.271 11.7974 16.5788 11.7974 16.9585C11.7974 17.3382 12.1052 17.646 12.4849 17.646H19.8182C20.1979 17.646 20.5057 17.3382 20.5057 16.9585C20.5057 16.5788 20.1979 16.271 19.8182 16.271Z" fill="white"/>
<path fill-rule="evenodd" clip-rule="evenodd" d="M17.9849 9.62516H3.3182C2.30567 9.62516 1.48486 8.80435 1.48486 7.79183V5.04183C1.48486 4.02931 2.30567 3.2085 3.3182 3.2085H17.9849C18.9974 3.2085 19.8182 4.02931 19.8182 5.04183V7.79183C19.8182 8.80435 18.9974 9.62516 17.9849 9.62516ZM3.3182 4.5835C3.06507 4.5835 2.85986 4.7887 2.85986 5.04183V7.79183C2.85986 8.04496 3.06507 8.25016 3.3182 8.25016H17.9849C18.238 8.25016 18.4432 8.04496 18.4432 7.79183V5.04183C18.4432 4.7887 18.238 4.5835 17.9849 4.5835H3.3182Z" fill="white"/>
</svg>
