<svg width="14" height="14" viewBox="0 0 14 14" fill="none" xmlns="http://www.w3.org/2000/svg">
<path d="M11.5208 6.41667H7.29167V2.1875C7.29167 1.94588 7.09579 1.75 6.85417 1.75C6.61254 1.75 6.41667 1.94588 6.41667 2.1875V6.41667H2.1875C1.94588 6.41667 1.75 6.61254 1.75 6.85417C1.75 7.09579 1.94588 7.29167 2.1875 7.29167H6.41667V11.5208C6.41667 11.7625 6.61254 11.9583 6.85417 11.9583C7.09579 11.9583 7.29167 11.7625 7.29167 11.5208V7.29167H11.5208C11.7625 7.29167 11.9583 7.09579 11.9583 6.85417C11.9583 6.61254 11.7625 6.41667 11.5208 6.41667Z" fill="black"/>
</svg>
