<svg width="20" height="20" viewBox="0 0 20 20" fill="none" xmlns="http://www.w3.org/2000/svg">
<path fill-rule="evenodd" clip-rule="evenodd" d="M16.6152 6.39143C15.4267 3.53757 12.642 1.67536 9.55055 1.6671C6.21872 1.64955 3.25614 3.78371 2.21754 6.94957C1.17894 10.1154 2.30159 13.5898 4.99632 15.5493C7.69106 17.5089 11.3423 17.506 14.0339 15.5421L16.4339 17.9421C16.6779 18.1858 17.0732 18.1858 17.3172 17.9421C17.5609 17.6981 17.5609 17.3028 17.3172 17.0588L14.9922 14.7338C17.164 12.5336 17.8037 9.2453 16.6152 6.39143ZM15.5009 11.8079C14.503 14.2126 12.1541 15.7788 9.55055 15.7754V15.7421C6.01698 15.7376 3.14843 12.8839 3.12555 9.35043C3.12218 6.74688 4.68838 4.39797 7.0931 3.40007C9.49783 2.40218 12.2669 2.95206 14.1079 4.79305C15.9489 6.63404 16.4988 9.40316 15.5009 11.8079Z" fill="#8BA2AD"/>
</svg>
