<svg width="20" height="22" viewBox="0 0 20 22" fill="none" xmlns="http://www.w3.org/2000/svg">
<path fill-rule="evenodd" clip-rule="evenodd" d="M7.0835 2.2915H12.9168C15.6783 2.2915 17.9168 4.75394 17.9168 7.7915V14.2082C17.9168 17.2457 15.6783 19.7082 12.9168 19.7082H7.0835C4.32207 19.7082 2.0835 17.2457 2.0835 14.2082V7.7915C2.0835 4.75394 4.32207 2.2915 7.0835 2.2915ZM12.9168 18.3332C14.986 18.3281 16.6622 16.4843 16.6668 14.2082V7.7915C16.6622 5.51542 14.986 3.67155 12.9168 3.6665H7.0835C5.01433 3.67155 3.33808 5.51542 3.3335 7.7915V14.2082C3.33808 16.4843 5.01433 18.3281 7.0835 18.3332H12.9168Z" fill="white"/>
<path d="M12.6502 6.4165C12.3069 6.42144 12.0297 6.72637 12.0252 7.104C12.0165 7.68266 11.7974 8.23337 11.4168 8.63301C11.0363 9.03266 10.5261 9.24791 10.0002 9.23067C8.91697 9.26669 8.0114 8.33206 7.97516 7.14067C7.97516 6.76097 7.69534 6.45317 7.35016 6.45317C7.00498 6.45317 6.72516 6.76097 6.72516 7.14067C6.76163 9.09137 8.22672 10.6415 10.0002 10.6057C11.7736 10.6415 13.2387 9.09137 13.2752 7.14067C13.2843 6.95207 13.2225 6.76763 13.1043 6.63065C12.9861 6.49368 12.8219 6.41623 12.6502 6.4165Z" fill="white"/>
</svg>
